<?xml version="1.0" encoding="UTF-8" standalone="no"?><!DOCTYPE svg PUBLIC "-//W3C//DTD SVG 1.1//EN" "http://www.w3.org/Graphics/SVG/1.1/DTD/svg11.dtd"><svg width="110" height="76" viewBox="0 0 110 76" xmlns="http://www.w3.org/2000/svg" xmlns:xlink="http://www.w3.org/1999/xlink"><svg viewBox="-5 -5 110 38" fill-rule="evenodd" clip-rule="evenodd" stroke-linejoin="round" stroke-miterlimit="1.414" width="110" height="38" id="logo"><path d="M20.746 19.14c-.411.122-.74.168-1.17.168-3.528 0-8.708-12.328-8.708-16.43 0-1.511.357-2.015.862-2.447C7.413.934 2.232 2.519.576 4.533.218 5.038 0 5.83 0 6.836c0 6.405 6.836 20.939 11.659 20.939 2.231 0 5.993-3.667 9.087-8.634M18.494 0c4.462 0 8.926.72 8.926 3.238 0 5.109-3.24 11.3-4.894 11.3-2.95 0-6.621-8.205-6.621-12.308 0-1.871.72-2.23 2.59-2.23M40.011 9.363v18.21h-2.537V9.363h-4.495V7.145h11.527v2.218h-4.495zm13.621 8.724v9.486h-2.628v-9.486L45.782 7.145h2.8l3.85 8.256 3.853-8.256h2.657l-5.31 10.942zm13.189 1.781h-2.452v7.705h-2.54V7.145s2.512-.206 4.935-.206c4.435 0 5.72 2.744 5.72 6.334 0 4.435-1.52 6.595-5.663 6.595m.29-10.826c-1.603 0-2.742.175-2.742.175v8.518h2.742c1.636 0 2.775-1.078 2.775-4.259 0-2.92-.703-4.434-2.775-4.434m14.536 18.733c-4.814 0-6.099-3.5-6.099-10.648 0-6.86 1.285-10.188 6.099-10.188 4.813 0 6.097 3.328 6.097 10.188 0 7.147-1.284 10.648-6.097 10.648m0-18.706c-2.625 0-3.502 1.782-3.502 8.202 0 6.272.877 8.376 3.502 8.376 2.624 0 3.5-2.104 3.5-8.376 0-6.42-.876-8.202-3.5-8.202m13.422 18.706c-1.429 0-3.557-.436-3.823-.498v-2.126c.702.144 2.51.445 3.796.445 1.485 0 2.45-1.261 2.45-3.511 0-2.653-.434-4.054-2.508-4.054H92.59v-2.133h2.1c2.367 0 2.48-2.422 2.48-3.588 0-2.306-.727-3.241-2.186-3.241-1.283 0-2.746.321-3.59.497v-2.13c.32-.059 2.044-.497 3.53-.497 3.004 0 4.73 1.285 4.73 5.635 0 1.984-.704 3.732-2.25 4.29 1.78.117 2.596 2.071 2.596 4.93 0 4.35-1.692 5.981-4.93 5.981" fill="#222" fill-rule="nonzero"/></svg><svg viewBox="-5 -5 38 38" fill-rule="evenodd" clip-rule="evenodd" stroke-linejoin="round" stroke-miterlimit="1.414" width="38" height="38" id="logo-small" y="38"><path d="M20.746 19.14c-.411.122-.74.168-1.17.168-3.528 0-8.708-12.328-8.708-16.43 0-1.511.357-2.015.862-2.447C7.413.934 2.232 2.519.576 4.533.218 5.038 0 5.83 0 6.836c0 6.405 6.836 20.939 11.659 20.939 2.231 0 5.993-3.667 9.087-8.634M18.494 0c4.462 0 8.926.72 8.926 3.238 0 5.109-3.24 11.3-4.894 11.3-2.95 0-6.621-8.205-6.621-12.308 0-1.871.72-2.23 2.59-2.23" fill="#222" fill-rule="nonzero"/></svg></svg>