<?xml version="1.0" encoding="UTF-8" standalone="no"?>
<!DOCTYPE svg PUBLIC "-//W3C//DTD SVG 1.1//EN" "http://www.w3.org/Graphics/SVG/1.1/DTD/svg11.dtd">
<svg width="100%" height="100%" viewBox="0 0 100 28" version="1.1" xmlns="http://www.w3.org/2000/svg" xmlns:xlink="http://www.w3.org/1999/xlink" xml:space="preserve" style="fill-rule:evenodd;clip-rule:evenodd;stroke-linejoin:round;stroke-miterlimit:1.41421;">
    <g transform="matrix(1.05378,0,0,4.84511,-1.65485,221.272)">
        <g transform="matrix(0.313134,0,0,0.0681048,-11.9576,-48.5378)">
            <path d="M106.074,100.128C104.827,100.496 103.832,100.634 102.527,100.634C91.836,100.634 76.138,63.275 76.138,50.841C76.138,46.264 77.221,44.737 78.751,43.426C65.667,44.953 49.967,49.755 44.947,55.859C43.862,57.388 43.202,59.785 43.202,62.839C43.202,82.249 63.92,126.294 78.534,126.294C85.297,126.295 96.696,115.181 106.074,100.128" style="fill:rgb(34,34,34);fill-rule:nonzero;"/>
        </g>
    </g>
    <g transform="matrix(1.05378,0,0,4.84511,-1.65485,221.272)">
        <g transform="matrix(0.313134,0,0,0.0681048,-11.9576,-48.5378)">
            <path d="M99.25,42.122C112.77,42.122 126.299,44.302 126.299,51.934C126.299,67.417 116.48,86.18 111.467,86.18C102.525,86.18 91.402,61.313 91.402,48.879C91.403,43.209 93.583,42.122 99.25,42.122" style="fill:rgb(34,34,34);fill-rule:nonzero;"/>
        </g>
    </g>
    <g transform="matrix(1.05378,0,0,4.84511,-1.65485,221.272)">
        <g transform="matrix(0.313134,0,0,0.0681048,-11.9576,-48.5378)">
            <path d="M164.458,70.495L164.458,125.682L156.767,125.682L156.767,70.495L143.145,70.495L143.145,63.775L178.079,63.775L178.079,70.495L164.458,70.495ZM205.737,96.935L205.737,125.682L197.771,125.682L197.771,96.935L181.946,63.775L190.431,63.775L202.099,88.795L213.775,63.775L221.828,63.775L205.737,96.935ZM245.705,102.332L238.276,102.332L238.276,125.682L230.578,125.682L230.578,63.775C230.578,63.775 238.191,63.15 245.534,63.15C258.972,63.15 262.865,71.466 262.865,82.345C262.865,95.785 258.261,102.332 245.705,102.332M246.585,69.522C241.726,69.522 238.275,70.053 238.275,70.053L238.275,95.868L246.585,95.868C251.541,95.868 254.994,92.6 254.994,82.961C254.995,74.114 252.863,69.522 246.585,69.522M290.635,126.295C276.047,126.295 272.154,115.685 272.154,94.024C272.154,73.235 276.048,63.151 290.635,63.151C305.222,63.151 309.113,73.235 309.113,94.024C309.113,115.685 305.222,126.295 290.635,126.295M290.635,69.605C282.682,69.605 280.024,75.005 280.024,94.463C280.024,113.469 282.682,119.846 290.635,119.846C298.588,119.846 301.245,113.469 301.245,94.463C301.246,75.005 298.588,69.605 290.635,69.605M331.313,126.295C326.982,126.295 320.533,124.974 319.726,124.785L319.726,118.341C321.855,118.779 327.334,119.69 331.229,119.69C335.73,119.69 338.657,115.868 338.657,109.05C338.657,101.011 337.339,96.764 331.056,96.764L323.8,96.764L323.8,90.301L330.162,90.301C337.338,90.301 337.677,82.961 337.677,79.428C337.677,72.438 335.475,69.605 331.056,69.605C327.166,69.605 322.733,70.578 320.177,71.111L320.177,64.657C321.144,64.478 326.37,63.151 330.873,63.151C339.978,63.151 345.205,67.043 345.205,80.226C345.205,86.241 343.073,91.537 338.386,93.228C343.783,93.582 346.255,99.505 346.255,108.17C346.255,121.351 341.129,126.295 331.313,126.295" style="fill:rgb(34,34,34);fill-rule:nonzero;"/>
        </g>
    </g>
</svg>
